<?xml version="1.0" encoding="UTF-8"?>
<svg id="Layer_1" data-name="Layer 1" xmlns="http://www.w3.org/2000/svg" viewBox="0 0 450.1 144.87">
  <defs>
    <style>
      .cls-1, .cls-2, .cls-3 {
        fill: #f16a6a;
      }

      .cls-1, .cls-4 {
        stroke-width: 0px;
      }

      .cls-2 {
        stroke-width: 5px;
      }

      .cls-2, .cls-3 {
        stroke-miterlimit: 10;
      }

      .cls-2, .cls-3, .cls-5 {
        stroke: #f16a6a;
      }

      .cls-4 {
        fill: #727272;
      }

      .cls-3 {
        stroke-width: 6px;
      }

      .cls-5 {
        fill: none;
        stroke-linejoin: round;
        stroke-width: 3px;
      }
    </style>
  </defs>
  <g>
    <path class="cls-1" d="M36.73,6.9H5.43V1.39h69.17v5.52h-31.46v92.73h-6.41V6.9Z"/>
    <path class="cls-1" d="M112.61,62.21V1.39h6.41v59.93c0,26.39,12.37,34.29,26.39,34.29s26.98-7.9,26.98-34.29V1.39h6.11v60.82c0,30.56-16.4,39.21-33.1,39.21s-32.8-8.65-32.8-39.21Z"/>
    <path class="cls-1" d="M226.66,1.39h6.41v98.24h-6.41V1.39Z"/>
    <path class="cls-1" d="M393.62,1.39h6.26l34.88,98.24h-6.86l-11.63-33.99h-39.06l-11.78,33.99h-6.56L393.62,1.39ZM379.16,60.12h35.33l-6.41-18.63c-4.03-11.63-7.45-21.92-11.03-33.99h-.6c-3.43,12.08-6.86,22.36-10.88,33.99l-6.41,18.63Z"/>
  </g>
  <line class="cls-2" x1="112.49" y1="2.5" x2="178.49" y2="2.5"/>
  <line class="cls-3" x1="145.53" y1="1.38" x2="145.53" y2="98.11"/>
  <line class="cls-5" x1="150.95" y1="49.75" x2="155.78" y2="49.75"/>
  <line class="cls-5" x1="135.82" y1="49.75" x2="140.65" y2="49.75"/>
  <g>
    <path class="cls-1" d="M267.89,1.58h6.55l17.93,57.83c3.74,12.1,6.43,21.22,10.46,33.17h.6c4.03-11.95,6.57-21.07,10.46-33.17L332.87,1.58h6.25l-32.72,98h-6.69L267.89,1.58Z"/>
    <polygon class="cls-1" points="333.42 1.58 312.58 1.58 312.58 19.58 298.58 19.58 298.58 35.58 280.32 35.58 301.93 97.89 333.42 1.58"/>
  </g>
  <g>
    <path class="cls-4" d="M21.06,119.45v25.2h-2.63v-11.63H2.66v11.63H0v-25.2h2.66v11.23h15.77v-11.23h2.63Z"/>
    <path class="cls-4" d="M27.04,132.05c0-7.34,5.62-12.81,13.25-12.81s13.21,5.44,13.21,12.81-5.65,12.81-13.21,12.81-13.25-5.47-13.25-12.81ZM50.83,132.05c0-6.01-4.5-10.44-10.55-10.44s-10.62,4.43-10.62,10.44,4.54,10.44,10.62,10.44,10.55-4.43,10.55-10.44Z"/>
    <path class="cls-4" d="M85.64,119.45v25.2h-2.56v-20.16l-9.9,16.95h-1.26l-9.9-16.85v20.05h-2.56v-25.2h2.2l10.94,18.68,10.83-18.68h2.2Z"/>
    <path class="cls-4" d="M111.67,142.35v2.3h-17.82v-25.2h17.28v2.3h-14.61v8.96h13.03v2.27h-13.03v9.36h15.15Z"/>
    <path class="cls-4" d="M127.37,119.45h2.66v25.2h-2.66v-25.2Z"/>
    <path class="cls-4" d="M159.29,119.45v25.2h-2.2l-16.2-20.45v20.45h-2.66v-25.2h2.2l16.23,20.45v-20.45h2.63Z"/>
    <path class="cls-4" d="M172.4,121.76h-8.85v-2.3h20.37v2.3h-8.85v22.89h-2.66v-22.89Z"/>
    <path class="cls-4" d="M205.99,142.35v2.3h-17.82v-25.2h17.28v2.3h-14.61v8.96h13.03v2.27h-13.03v9.36h15.15Z"/>
    <path class="cls-4" d="M229.46,144.65l-5.76-8.1c-.65.07-1.3.11-2.02.11h-6.77v7.99h-2.66v-25.2h9.43c6.41,0,10.29,3.24,10.29,8.64,0,3.96-2.09,6.73-5.76,7.92l6.16,8.64h-2.92ZM229.31,128.09c0-4.03-2.66-6.34-7.7-6.34h-6.7v12.63h6.7c5.04,0,7.7-2.34,7.7-6.3Z"/>
    <path class="cls-4" d="M238.28,119.45h2.66v25.2h-2.66v-25.2Z"/>
    <path class="cls-4" d="M246.92,132.05c0-7.34,5.62-12.81,13.25-12.81s13.21,5.44,13.21,12.81-5.65,12.81-13.21,12.81-13.25-5.47-13.25-12.81ZM270.71,132.05c0-6.01-4.5-10.44-10.55-10.44s-10.62,4.43-10.62,10.44,4.54,10.44,10.62,10.44,10.55-4.43,10.55-10.44Z"/>
    <path class="cls-4" d="M296.56,144.65l-5.76-8.1c-.65.07-1.3.11-2.02.11h-6.77v7.99h-2.66v-25.2h9.43c6.41,0,10.29,3.24,10.29,8.64,0,3.96-2.09,6.73-5.76,7.92l6.16,8.64h-2.92ZM296.42,128.09c0-4.03-2.66-6.34-7.7-6.34h-6.7v12.63h6.7c5.04,0,7.7-2.34,7.7-6.3Z"/>
    <path class="cls-4" d="M312.4,141.59l1.04-2.05c1.8,1.76,5,3.06,8.31,3.06,4.72,0,6.77-1.98,6.77-4.46,0-6.91-15.51-2.66-15.51-11.99,0-3.71,2.88-6.91,9.29-6.91,2.84,0,5.8.83,7.81,2.23l-.9,2.12c-2.16-1.4-4.68-2.09-6.91-2.09-4.61,0-6.66,2.05-6.66,4.57,0,6.91,15.51,2.74,15.51,11.91,0,3.71-2.95,6.88-9.39,6.88-3.78,0-7.49-1.33-9.36-3.28Z"/>
    <path class="cls-4" d="M341.49,121.76h-8.85v-2.3h20.37v2.3h-8.85v22.89h-2.66v-22.89Z"/>
    <path class="cls-4" d="M356.54,133.89v-14.43h2.66v14.33c0,5.98,2.81,8.71,7.7,8.71s7.74-2.74,7.74-8.71v-14.33h2.59v14.43c0,7.24-3.89,10.98-10.33,10.98s-10.37-3.74-10.37-10.98Z"/>
    <path class="cls-4" d="M385.27,119.45h10.26c8.06,0,13.5,5.18,13.5,12.6s-5.44,12.6-13.5,12.6h-10.26v-25.2ZM395.38,142.35c6.7,0,11.01-4.25,11.01-10.29s-4.32-10.29-11.01-10.29h-7.45v20.59h7.45Z"/>
    <path class="cls-4" d="M415,119.45h2.66v25.2h-2.66v-25.2Z"/>
    <path class="cls-4" d="M423.64,132.05c0-7.34,5.62-12.81,13.25-12.81s13.21,5.44,13.21,12.81-5.65,12.81-13.21,12.81-13.25-5.47-13.25-12.81ZM447.43,132.05c0-6.01-4.5-10.44-10.55-10.44s-10.62,4.43-10.62,10.44,4.54,10.44,10.62,10.44,10.55-4.43,10.55-10.44Z"/>
  </g>
  <rect class="cls-1" x="317.87" y="7.5" width="10.26" height="10.26"/>
</svg>