<?xml version="1.0" encoding="UTF-8"?>
<svg id="Layer_1" data-name="Layer 1" xmlns="http://www.w3.org/2000/svg" viewBox="0 0 255.85 318.01">
  <defs>
    <style>
      .cls-1 {
        fill: #f7f07b;
        opacity: .5;
      }

      .cls-1, .cls-2, .cls-3, .cls-4, .cls-5, .cls-6 {
        stroke-width: 0px;
      }

      .cls-2 {
        opacity: .6;
      }

      .cls-2, .cls-5 {
        fill: #fff200;
      }

      .cls-3 {
        fill: #60767c;
      }

      .cls-4 {
        fill: #0e1315;
      }

      .cls-6 {
        fill: #e6f0f1;
      }
    </style>
  </defs>
  <path class="cls-4" d="M124.32,136.06c-1.49-2.02-3.48-2.82-6.1-2.37v-9.77c.46-.49,1.15-.23,1.76-.23,17.25,0,34.5,0,51.75.05,10.16.03,18.99,6.26,22.23,15.59.8,2.31,1.27,4.67,1.26,7.15-.03,12.29.01,24.57,0,36.86,0,3.99-.92,7.73-3.52,10.89-2.25,2.74-5.16,4.14-8.7,4.17-3.65.03-7.31,0-11.34,0,1.26,4.94,2.46,9.67,3.65,14.35,2.85.31,44.91.24,46.97-.06.47-.81.22-1.72.22-2.58,0-26.93-.01-53.87-.02-80.8,0-3.3,1.1-4.88,3.54-5.17,3.21-.38,5.28,1.43,5.3,4.76.03,7.32,0,14.65,0,21.97,0,19.94-.01,39.87,0,59.81,0,.71-.21,1.46.37,2.34,6.37,0,12.86.02,19.35-.01,2,0,3.42.84,4.34,2.57.86,1.63.5,3.16-.52,4.56-.93,1.29-2.27,1.75-3.82,1.74-3.09-.01-6.18.02-9.28.02-78.61,0-157.21-.01-235.82-.02-.57,0-1.14.02-1.71-.02C1.76,221.68,0,219.79,0,217.37c0-2.47,1.7-4.28,4.3-4.31,6.35-.09,12.69-.09,19.04-.13.87,0,1.75,0,2.82,0,0-1.18,0-2.05,0-2.93,0-46.38,0-92.77,0-139.15,0-.81-.01-1.63.05-2.44.2-2.49,1.63-3.8,4.11-3.82,2.5-.02,4.25,1.47,4.31,3.93.09,3.99,0,7.97.03,11.96,0,.77.61,88.92.04,127.47-.09,3.28-.15,4.54-.09,4.63h9.35c0-1.29-.04-2.23-.04-3.26.01-16.43.02-32.86,0-49.29-.02-25.78-.05-51.56-.07-77.35.01-4.31.1-8.62.02-12.93-.07-4.16.19-8.27,1.33-12.5-5.78,0-11.46.03-17.14-.01-3.24-.02-5.35-2.49-4.69-5.37.45-1.97,2.4-3.31,5.08-3.33,5.53-.04,11.07-.07,16.6.02,1.57.03,2.37-.34,3.05-1.92,4.09-9.64,10.42-17.34,19.21-23.28,2.95-1.99,5.28-5.19,8.25-7.42,10.37-7.78,21.99-12.7,34.76-14.76,22.06-3.56,42.57.9,61.61,12.4,2.03,1.22,3.99,1.8,6.37,1.78,15.38-.09,30.76-.05,46.14-.05,4.91,0,6.84,1.88,6.85,6.7.02,29.78.02,59.57.03,89.35,0,.65.04,1.32-.09,1.95-.47,2.36-2.62,3.95-4.98,3.74-2.3-.2-3.85-1.95-3.87-4.5-.02-4.8.02-9.6.02-14.4.02-23.52.03-47.04.03-70.55,0-3.26-.25-3.48-3.47-3.47-15.54.01-31.08.03-46.62.05-2-.15-3.16-1.82-4.79-2.65-3.77-1.94-7.08-4.78-11.35-5.76-3.96-2.78-8.56-3.65-13.21-4.38-8.17-2.46-16.52-2.98-24.96-2.14-1.28.13-2.78-.33-3.89.81-.44.02-.88.04-1.31.05-.9-.29-1.78-.29-2.59.27-7.99,1.06-15.36,3.83-22.22,8.04,4.13.26,8.16.72,12.04,1.84,15.59,4.49,26.3,13.77,29.11,30.48.23,1.35,1.04,1.4,1.92,1.73,7.05,2.69,12.2,7.27,14.66,14.58,1.52,4.52,1.05,9.17,1.08,13.79,0,1.23-.77,1.9-2.06,1.89-1.46-.01-2.93,0-4.39,0-11.07,0-22.13,0-33.2.01-1.28,0-2.72,0-2.73-1.63-.02-3.81-.5-7.67.25-11.44,1.86-9.24,7.49-15.02,16.55-17.46-1.5-13.84-15.28-24.4-32.73-25.39-12.65-.71-29.58,9.32-31.57,21.73,12.22,0,24.42,0,36.63,0,3.08,0,5.03,1.59,5.12,4.05.09,2.56-1.92,4.46-4.94,4.61-1.14.06-2.28,0-3.42,0-11.55-.02-23.11-.02-34.66-.1-1.69-.01-2.43.37-2.64,2.22-.25,2.26-.58,4.51-.58,6.79-.03,48.17-.05,96.35-.06,144.52,0,.69-.29,1.47.36,2.07h8.19c0-.97,0-1.85,0-2.72-.01-42.97-.02-85.93-.03-128.9,0-3.22,1.25-4.76,3.84-4.76,2.58,0,4.02,1.81,3.98,5-.03,2.44-.08,4.88-.08,7.32-.01,40.44-.02,80.89-.03,121.33,0,.87,0,1.74,0,2.67,1.64.13,3.08.27,4.52-.05,2.17-.66,4.46-.1,6.85-.57,0-2.37,0-4.63,0-6.89-.01-37.72-.02-75.44-.03-113.15.02-3.66.03-7.32.07-10.97.04-3.03,1.49-4.65,4.09-4.62,2.61.03,4.11,1.69,4.13,4.6.03,5.77.05,11.54.07,17.32-.01,3.11-.02,6.21-.04,9.32v105.23h30.01c1.26-4.77,2.5-9.51,3.79-14.43-3.43,0-6.68.02-9.93,0-6.86-.04-11.43-3.92-12.63-10.73-.24-1.35-.42-2.74-.43-4.11-.04-12.69-.22-25.39.03-38.07.14-7.09,3.23-12.98,9.23-17.09.92-.63,1.84-1.33,3.4-1.36,0,2.66-.01,5.29,0,7.93,0,.64-.34,1.07-.74,1.47-2.54,2.55-3.16,5.77-3.16,9.17-.01,10.9,0,21.8,0,32.7-.28.97.5,1.18,1.09,1.57.96.64,2.15.98,2.84,2.01-.99,2.6-1.4,5.27-.98,8.08h3.22c2.75-8.68,6.09-11.09,15.27-11.09,11.55,0,23.09-.01,34.64,0,9.36,0,12.95,2.49,16.18,11.18,1.07-.02,2.18.23,3.3-.18-.02-1.89.22-3.64-.29-5.42-2.16-7.52-8.79-12.4-17.21-12.43-13.33-.06-26.67-.05-40-.07.01-1.37-.05-2.75.05-4.12.17-2.21-.53-4.48.46-6.63,2.66,1.58,4.84,1.53,6.32-.27,1.34-1.63,1.38-3.41.14-5.12-1.41-1.94-3.4-2.17-6-.79-1.08-.54-.64-1.55-.65-2.36-.11-4.83-.17-9.67-.24-14.5-.02-1.16.07-2.39-1.71-2.12ZM162.56,198.44c-10.15,0-20.21,0-30.28,0-.61,0-1.16.07-1.38.72-1.49,4.55-2.97,9.1-4.45,13.65h40.51c-1.48-4.81-2.89-9.43-4.41-14.37ZM171.81,142.09c2.24-.06,3.94-1.83,3.92-4.06-.03-2.49-2.02-4.36-4.57-4.26-2.29.09-3.83,1.77-3.78,4.13.06,2.32,2.1,4.26,4.42,4.19ZM145.1,141.92c2.37.03,4.09-1.55,4.16-3.83.07-2.25-1.97-4.41-4.26-4.5-2.31-.09-3.93,1.52-4,3.94-.08,2.61,1.56,4.35,4.1,4.38ZM164.56,158.37c.01-2.34-1.78-4.26-4.02-4.3-2.15-.04-4.22,2.02-4.22,4.19,0,2.08,2.1,4.07,4.31,4.1,2.27.02,3.92-1.65,3.93-3.99Z"/>
  <path class="cls-5" d="M156.22,15.77c4.26.98,7.58,3.82,11.35,5.76,1.63.84,2.79,2.5,4.79,2.65,3.26,3.1,6.51,6.2,9.77,9.31.9,2.44,3.03,3.92,4.56,5.87,12.81,16.31,19.11,34.9,19.23,55.56.13,21.79.07,43.59.1,65.38h-3.51c0-2.39.03-4.71,0-7.04-.07-5.02.45-10.08-.75-15.04-3.27-13.5-14.67-22.55-28.95-22.76-10.49-.15-20.98-.04-31.48-.05-.56,0-1.12,0-2.47,0,1.65-.88,2.66-1.43,3.68-1.96,17.12-8.96,27.14-23.2,30.52-42.02,3.48-19.37-1.4-36.71-13.77-51.98-1.01-1.24-2.49-2.09-3.06-3.68Z"/>
  <path class="cls-5" d="M88.32,107.62c.01-3.11.02-6.21.04-9.32,4.35,2.88,8.95,5.31,14,6.69,18.3,5,34.79,1.98,48.09-12.13,10.61-11.25,13.86-25.05,11.6-40.2-3.12-20.93-19.27-35.26-36.27-40.36-3.82-1.15-7.85-.97-11.62-2.24,1.1-1.14,2.61-.68,3.89-.81,8.44-.84,16.79-.32,24.96,2.14,5.56,4.1,11.11,8.29,15.18,13.94,13.75,19.1,16.17,39.44,5.84,60.81-3.38,6.99-7.92,13.34-14.29,18.01-10.72,7.85-22.69,11.57-36.07,10.58-8.39-.62-16.26-2.95-23.77-6.64-.49-.24-.96-.66-1.59-.48Z"/>
  <path class="cls-4" d="M206.01,160.31c-.02-21.79.03-43.59-.1-65.38-.12-20.67-6.42-39.25-19.23-55.56-1.53-1.95-3.66-3.43-4.56-5.87,3.17-.07,6.34-.11,9.5-.23,1.19-.05,1.73.79,2.37,1.47,5.84,6.17,9.66,13.61,12.93,21.31,5.33,12.55,7.91,25.68,7.86,39.34-.07,20.74-.03,41.49-.04,62.23,0,.81,0,1.61,0,2.69h-8.75Z"/>
  <path class="cls-1" d="M43.86,82.69c.02,25.78.06,51.56.07,77.35.01,16.43.22,52.55.03,52.55h-9.35c0-.25-.02-2.86.09-4.63.57-38.55.12-77.1.24-115.65,0-3.17.05-6.34.07-9.51,2.95-.04,5.9-.07,8.85-.11Z"/>
  <path class="cls-4" d="M229.46,253.28c.02,8.78-7.19,16.15-15.78,16.13-8.6-.02-15.98-7.41-15.99-16.01-.01-8.99,7.3-16.69,15.87-16.72,8.81-.02,15.89,7.35,15.91,16.59ZM204.41,252.75c-.09,5.14,4.04,9.55,8.97,9.58,4.75.03,9.51-4.52,9.63-9.2.12-4.79-4.34-9.36-9.24-9.47-5.17-.11-9.26,3.86-9.35,9.08Z"/>
  <path class="cls-4" d="M149.82,269.42c-7.16.02-6.37.42-6.38-6.45,0-7.55,0-15.11.02-22.66,0-2.73.54-3.24,3.29-3.31,5.5-.15,10.85.16,15.5,3.72,5.66,4.35,7.86,10.98,5.72,17.75-1.9,6.01-8.4,10.77-14.97,10.95-1.06.03-2.11,0-3.17,0ZM149.99,262.54c4.09.83,8.26-.82,10.4-3.99,2.27-3.37,2.27-6.88,0-10.21-2.42-3.55-6.06-5.01-10.41-4.13v18.34Z"/>
  <path class="cls-4" d="M130.96,249.42c0,2.77.04,5.53,0,8.3-.13,6.69-5.12,11.88-11.56,12.07-6.06.17-11.48-4.72-12.06-11.09-.55-6.16-.25-12.35-.26-18.53,0-2.17,1.45-3.53,3.26-3.5,2.05.04,3.25,1.34,3.26,3.7.03,5.69-.06,11.39.05,17.08.05,2.85,2.3,5.15,4.97,5.45,2.25.25,4.81-1.48,5.66-3.8.38-1.03.27-2.08.27-3.13,0-5.04-.04-10.08-.05-15.13,0-2.78,1.11-4.22,3.23-4.2,2.07.01,3.19,1.47,3.22,4.26.03,2.85,0,5.69,0,8.54h.02Z"/>
  <path class="cls-4" d="M110.87,317.61c-.82,0-1.13-.47-1.41-1.09-.39-.85.17-1.34.66-1.9,2.88-3.26,5.74-6.54,8.71-9.93-5.14-.81-8.69-4.82-8.42-9.27.32-5.48,4.51-9.23,10.24-9.19,5.16.04,9.24,3.9,9.68,9.03.28,3.22-1.05,5.86-2.85,8.31-1.86,2.53-10.78,14.01-16.61,14.03ZM120.39,292.6c-1.9-.05-3.45,1.37-3.54,3.24-.11,2.05,1.73,3.95,3.82,3.95,1.7,0,3.33-1.67,3.4-3.5.08-2.03-1.52-3.64-3.67-3.7Z"/>
  <path class="cls-4" d="M26.19,28.79s-.09-5.85.03-8.77c.12-2.93,1.68-4.6,4.53-4.64,6.98-.1,13.97-.1,20.96,0,2.75.04,4.51,1.98,4.46,4.43-.05,2.63-1.87,4.32-4.77,4.33-4.79.02-9.59.08-14.38-.03-1.85-.05-2.41.6-2.37,2.38.08,3.41,0,6.82-.03,10.23-.03,3.27-1.76,5.36-4.39,5.33-2.55-.02-3.95-1.07-4.21-4.57-.19-2.59.17-8.69.17-8.69Z"/>
  <path class="cls-4" d="M155.3,303.84c1.02-6.12,1.96-11.71,2.92-17.42h17.13c-.53,1.82-1.64,3.32-2.51,4.93-.41.77-1.03.92-1.82.89-1.06-.04-2.11,0-3.17,0q-4.79.03-4.85,5.13c1.67.21,3.38.06,5.03.64,3.8,1.34,6.14,3.96,6.67,7.92.62,4.64-1.42,8.77-5.19,10.68-3.82,1.93-7.66,1.92-11.31-.54-1.03-.7-1.78-1.68-2.14-2.89-.36-1.19-1.2-2.64.34-3.45,1.42-.74,3.07-1.76,4.62.01.76.87,1.63,1.51,2.91,1.54,2.3.04,4.16-1.29,4.41-3.3.23-1.86-1.45-3.99-3.63-4.12-2.98-.18-5.99-.04-9.41-.04Z"/>
  <path class="cls-4" d="M58.81,269.79c-3.14-.12-6.05-1.48-8.22-4.3-1.03-1.34-1.47-2.77.02-4.07,1.39-1.22,2.93-1.78,4.6-.46,1,.79,1.81,1.92,3.21,2.05,1.94.18,3.63-.24,4.16-2.42.5-2.07-.74-3.2-2.46-3.87-1.96-.76-4-1.28-5.79-2.45-5.1-3.31-6.23-8.71-2.75-13.32,3.46-4.57,10.35-5.53,14.45-1.92,1.33,1.17,2.82,2.53,1.68,4.57-.91,1.63-3.58,1.8-5.57.53-2.01-1.28-4.34-.96-5.38.72-1,1.62-.25,3.39,2.13,4.64,1.64.86,3.42,1.46,5.05,2.34,4.28,2.3,6.24,6.36,5.15,10.44-1.2,4.51-5.13,7.49-10.28,7.51Z"/>
  <path class="cls-5" d="M124.32,136.06c1.78-.27,1.69.96,1.71,2.12.07,4.83.13,9.67.24,14.5.02.81-.43,1.82.65,2.36-1.81,1.94-1.75,4.02-.47,6.19-.99,2.15-.29,4.42-.46,6.63-.11,1.37-.04,2.75-.05,4.12-6.46.82-10.89,4.52-14.12,9.94-.69-1.03-1.88-1.37-2.84-2.01-.58-.39-1.37-.6-1.09-1.57.45-3.36.84-6.72,3.19-9.47,1.46-1.7,3.08-3.2,5.18-3.92,1.55-.53,1.84-1.43,1.83-2.9-.07-6.57-.03-13.14-.03-19.7,5.36-.14,6.65-1.47,6.25-6.29Z"/>
  <path class="cls-4" d="M143.49,311.28h8.33c-.06,2.12.11,4.11-.46,6.33-6.01,0-12,.05-17.99-.04-1.48-.02-1.84-1.63-.69-3.06,3.78-4.67,7.62-9.29,11.42-13.93.51-.63,1.01-1.27,1.49-1.92,1.16-1.55,1.32-3.13-.07-4.62-1.53-1.62-3.26-1.62-5.15-.45-1.9,1.18-4.05.23-6.11.54.39-4.03,2.66-6.78,6.19-7.69,3.88-1,8.26.55,10.56,3.89,2.32,3.37,2.67,6.9.36,10.45-1.15,1.76-2.37,3.48-3.64,5.16-1.25,1.66-2.59,3.25-4.25,5.33Z"/>
  <path class="cls-4" d="M84.98,243.57c-2.02,0-3.64.04-5.26-.01-1.85-.06-2.87-1.22-2.95-2.93-.09-1.78.75-3.35,2.67-3.48,5.75-.38,11.52-.38,17.27-.03,1.75.11,2.77,1.48,2.76,3.17-.01,1.65-.92,3.02-2.68,3.3-1.73.28-3.51.28-5.5.42,0,7.36-.03,14.65.02,21.93.01,1.79-.64,3.01-2.38,3.45-2.23.55-3.73-.8-3.77-3.45-.1-6.49-.12-12.99-.17-19.48,0-.88,0-1.75,0-2.88Z"/>
  <path class="cls-4" d="M97.19,296.29c-2.16,1.08-3.92,1.97-5.66,2.85-2.29-3.62-1.96-5.29,1.27-7.42,2.57-1.7,5.1-3.47,7.71-5.11,1.87-1.17,3.38-.39,3.39,1.77.05,8.54.04,17.09,0,25.63,0,2.01-.9,3.48-3.09,3.66-2.01.17-3.57-1.37-3.6-3.74-.08-5.77-.03-11.54-.03-17.65Z"/>
  <path class="cls-4" d="M185.17,253.08c0,4.14.02,8.28,0,12.43-.01,2.53-1.17,3.87-3.29,3.92-1.99.04-3.13-1.17-3.15-3.74-.06-8.45-.05-16.89-.02-25.34,0-2.16,1.45-3.67,3.35-3.7,1.95-.03,3.09,1.29,3.12,3.77.04,4.22.01,8.45.01,12.67h-.01Z"/>
  <path class="cls-4" d="M214.14,53.39c-2.7-7.45-6.71-14.19-11.27-21.06,3.68,0,6.98.02,10.27,0,1.31,0,1.63.69,1.63,1.86-.03,6.33-.01,12.66-.01,19-.21.07-.41.14-.62.21Z"/>
  <path class="cls-4" d="M186.52,306.01c-3.18.04-5.54-2.39-5.59-5.77-.06-3.43,2.16-5.75,5.51-5.76,3.29,0,5.81,2.39,5.85,5.57.04,3.31-2.48,5.92-5.77,5.96Z"/>
  <path class="cls-4" d="M75.54,305.88c-3.05-.06-5.35-2.52-5.33-5.72.02-3.18,2.61-5.85,5.64-5.82,3.13.03,5.66,2.65,5.62,5.82-.04,3.32-2.59,5.78-5.93,5.72Z"/>
  <path class="cls-4" d="M214.51,203.77h-7.88v-8.65h7.88v8.65Z"/>
  <path class="cls-4" d="M206.54,178.87v-8.61h8.1v8.57c-2.7.01-5.4.03-8.1.04Z"/>
  <path class="cls-2" d="M206.54,178.87c2.7-.01,5.4-.03,8.1-.04v6.96h-8.1v-6.92Z"/>
  <path class="cls-1" d="M114.16,10.06c3.77,1.26,7.8,1.09,11.62,2.24,17,5.11,33.14,19.43,36.27,40.36,2.26,15.15-.99,28.95-11.6,40.2-13.3,14.11-29.79,17.13-48.09,12.13-5.05-1.38-9.65-3.81-14-6.69-.02-5.77-.04-11.54-.07-17.32-.02-2.91-1.52-4.56-4.13-4.6-2.6-.03-4.06,1.59-4.09,4.62-.04,3.66-.05,7.32-.07,10.97-2.85-2.28-4.56-5.49-6.91-8.82,0,1.28,0,2.07,0,2.86-.02,32.44-.05,64.88-.04,97.32,0,9.75.09,19.51.14,29.26-1.44.32-2.89.18-4.52.05,0-.92,0-1.8,0-2.67,0-40.44.02-80.89.03-121.33,0-2.44.05-4.88.08-7.32.04-3.18-1.4-5-3.98-5-2.58,0-3.84,1.54-3.84,4.76,0,42.97.02,85.93.03,128.9,0,.88,0,1.75,0,2.72h-8.19c-.65-.59-.36-1.38-.36-2.07,0-48.17.03-96.35.06-144.52,0-2.28.33-4.53.58-6.79.2-1.85.95-2.23,2.64-2.22,11.55.08,23.11.08,34.66.1,1.14,0,2.28.05,3.42,0,3.02-.15,5.03-2.04,4.94-4.61-.09-2.46-2.04-4.05-5.12-4.05-12.21-.02-24.41,0-36.63,0,1.99-12.4,18.92-22.44,31.57-21.73,17.45.98,31.22,11.54,32.73,25.39-9.06,2.43-14.69,8.22-16.55,17.46-.76,3.77-.27,7.63-.25,11.44,0,1.64,1.45,1.63,2.73,1.63,11.07-.02,22.13-.01,33.2-.01,1.46,0,2.93,0,4.39,0,1.29.01,2.07-.66,2.06-1.89-.03-4.62.44-9.27-1.08-13.79-2.47-7.32-7.62-11.9-14.66-14.58-.88-.33-1.69-.38-1.92-1.73-2.82-16.7-13.52-25.98-29.11-30.48-3.88-1.12-7.92-1.58-12.04-1.84,6.86-4.21,14.22-6.98,22.22-8.04.89.17,1.78.3,2.59-.27.44-.02.88-.04,1.31-.05Z"/>
  <path class="cls-5" d="M73.17,212.79c0-.06-.13-19.77-.13-29.46,0-32.44.03-64.88.04-97.32,0-.79,0-1.58,0-2.86,2.35,3.33,4.06,6.54,6.91,8.82.01,37.72.02,75.44.03,113.15,0,2.26,0,4.52,0,6.89-2.39.47-4.28.76-6.85.76Z"/>
  <path class="cls-6" d="M171.81,142.09c-2.33.07-4.37-1.87-4.42-4.19-.06-2.36,1.48-4.04,3.78-4.13,2.54-.1,4.54,1.76,4.57,4.26.02,2.23-1.68,4-3.92,4.06Z"/>
  <path class="cls-6" d="M145.1,141.92c-2.54-.03-4.18-1.78-4.1-4.38.07-2.43,1.7-4.03,4-3.94,2.29.09,4.34,2.25,4.26,4.5-.07,2.28-1.8,3.86-4.16,3.83Z"/>
  <path class="cls-6" d="M126.45,161.23c-1.28-2.17-1.35-4.25.47-6.19,2.6-1.38,4.58-1.15,6,.79,1.24,1.71,1.2,3.49-.14,5.12-1.48,1.8-3.66,1.86-6.32.27Z"/>
  <path class="cls-6" d="M164.56,158.37c-.01,2.34-1.66,4.01-3.93,3.99-2.21-.02-4.31-2.01-4.31-4.1,0-2.17,2.07-4.23,4.22-4.19,2.24.04,4.03,1.96,4.02,4.3Z"/>
  <path class="cls-3" d="M112.85,10.11c-.81.57-1.7.44-2.59.27.82-.56,1.69-.56,2.59-.27Z"/>
</svg>